# xmcd CD database file
#
# Track frame offsets:
#	151
#	31076
#	45716
#	61529
#	85547
#	106870
#	119752
#	140205
#	163789
#	181224
#	202126
#	223250
#	252145
#	262475
#	275955
#	286366
#	309137
#
# Disc length: 4383 seconds
#
# Revision: 1
# Processed by: cddbd v1.5.2PL0 Copyright (c) Steve Scherf et al.
# Submitted via: CDex 1.70beta2
#
DISCID=07111d11
DTITLE=Joe Cocker - The Best Early Years (vol.2)
DYEAR=2001
DGENRE=Blues
TTITLE0=Do Right Women
TTITLE1=Sandpapep Cadillac
TTITLE2=Something
TTITLE3=Just Like A Woman
TTITLE4=Don^t Let Me Be Misunderstood
TTITLE5=Delta Lady
TTITLE6=Woman To Woman
TTITLE7=Witn A Little Help From My Friends
TTITLE8=Hello, Little Friend
TTITLE9=I Shall Be Released
TTITLE10=Darling Be Home Soon
TTITLE11=St.. James Infirmary Blues
TTITLE12=The New Age Of Lily
TTITLE13=She^s Good To Me
TTITLE14=Something^s Coming On
TTITLE15=Let It Be
TTITLE16=Give Peace A Chance
EXTD=YEAR: 2001
EXTT0=
EXTT1=
EXTT2=
EXTT3=
EXTT4=
EXTT5=
EXTT6=
EXTT7=
EXTT8=
EXTT9=
EXTT10=
EXTT11=
EXTT12=
EXTT13=
EXTT14=
EXTT15=
EXTT16=
PLAYORDER=
